<svg width="150" height="150" viewBox="0 0 150 150" xmlns="http://www.w3.org/2000/svg"><title>wpcom-wmark</title><desc>Created with Sketch.</desc><path d="M108.901 133.282l20.595-59.548c3.849-9.62 5.129-17.312 5.129-24.152 0-2.483-.163-4.787-.454-6.934 5.263 9.604 8.259 20.626 8.259 32.351 0 24.875-13.481 46.596-33.529 58.283zm-24.608-89.9c4.059-.213 7.717-.641 7.717-.641 3.633-.429 3.206-5.77-.429-5.556 0 0-10.922.857-17.973.857-6.626 0-17.76-.857-17.76-.857-3.636-.214-4.063 5.341-.427 5.556 0 0 3.439.428 7.072.641l10.505 28.784-14.76 44.258-24.552-73.042c4.063-.213 7.716-.641 7.716-.641 3.632-.429 3.203-5.77-.431-5.556 0 0-10.92.857-17.971.857-1.265 0-2.757-.032-4.342-.082 12.059-18.304 32.783-30.392 56.341-30.392 17.555 0 33.539 6.711 45.535 17.704-.289-.019-.574-.055-.872-.055-6.625 0-11.324 5.77-11.324 11.969 0 5.556 3.206 10.257 6.624 15.815 2.564 4.491 5.559 10.26 5.559 18.596 0 5.775-1.712 13.036-5.131 21.801l-6.727 22.472-24.369-72.486zm-9.294 99.055c-6.618 0-13.008-.973-19.048-2.747l20.234-58.793 20.725 56.787c.136.33.303.636.483.927-7.009 2.466-14.54 3.826-22.393 3.826zm-67.429-67.438c0-9.778 2.097-19.059 5.839-27.444l32.165 88.13c-22.497-10.929-38.005-33.995-38.005-60.686zm67.429-74.999c-41.354 0-74.999 33.644-74.999 74.999 0 41.358 33.645 75.005 74.999 75.005 41.355 0 75.001-33.647 75.001-75.005 0-41.355-33.646-74.999-75.001-74.999z" fill="#fff"/></svg>