<?xml version="1.0" standalone="no"?><!DOCTYPE svg PUBLIC "-//W3C//DTD SVG 1.1//EN" "http://www.w3.org/Graphics/SVG/1.1/DTD/svg11.dtd"><svg t="1690771137457" class="icon" viewBox="0 0 1024 1024" version="1.1" xmlns="http://www.w3.org/2000/svg" p-id="7955" xmlns:xlink="http://www.w3.org/1999/xlink" width="18" height="18"><path d="M792.241 483.333l84.29 122.162c14.246 20.646 9.057 48.932-11.59 63.178-20.646 14.245-48.931 9.056-63.177-11.59l-96.235-139.475c-46.873 14.454-96.675 23.726-148.11 27.177V711.13c0 25.084-20.335 45.418-45.419 45.418-25.084 0-45.419-20.334-45.419-45.418V544.785c-51.435-3.451-101.237-12.723-148.11-27.177l-96.235 139.475c-14.246 20.646-42.531 25.835-63.177 11.59-20.647-14.246-25.836-42.532-11.59-63.178l84.29-122.162c-71.278-34.968-132-83.323-176.087-142.072-15.055-20.064-10.996-48.533 9.067-63.589 20.064-15.055 48.533-10.996 63.589 9.067C205.442 389.502 350.61 455.466 512 455.466c161.39 0 306.558-65.964 383.672-168.727 15.056-20.063 43.525-24.122 63.589-9.067 20.063 15.056 24.122 43.525 9.067 63.589-44.087 58.75-104.809 107.104-176.087 142.072z" fill="#797979" p-id="7956"></path></svg>