<?xml version="1.0" standalone="no"?><!DOCTYPE svg PUBLIC "-//W3C//DTD SVG 1.1//EN" "http://www.w3.org/Graphics/SVG/1.1/DTD/svg11.dtd"><svg t="1690945940932" class="icon" viewBox="0 0 1024 1024" version="1.1" xmlns="http://www.w3.org/2000/svg" p-id="1504" xmlns:xlink="http://www.w3.org/1999/xlink" width="18" height="18"><path d="M176.83413318 109.8009592h67.03317243v804.3980816h-67.03317243zM579.03317398 109.8009592h67.03317242v804.3980816h-67.03317242z" fill="#000000" p-id="1505"></path><path d="M813.64928061 210.35071939c-18.4341222 0-33.5165862-15.08246403-33.51658622-33.51658621v-67.03317398c0-18.4341222 15.08246403-33.5165862 33.51658622-33.51658622s33.5165862 15.08246403 33.51658621 33.51658622v67.03317398c0 18.4341222-15.08246403 33.5165862-33.51658621 33.51658621zM813.64928061 746.6161066c-18.4341222 0-33.5165862-15.08246403-33.51658622-33.51658622v-134.0663464c0-18.4341222 15.08246403-33.5165862 33.51658622-33.51658778s33.5165862 15.08246403 33.51658621 33.51658778v134.0663464c0 18.4341222-15.08246403 33.5165862-33.51658621 33.51658622z m0-268.1326928c-18.4341222 0-33.5165862-15.08246403-33.51658622-33.51658778v-134.0663464c0-18.4341222 15.08246403-33.5165862 33.51658622-33.51658622s33.5165862 15.08246403 33.51658621 33.51658622v134.0663464c0 18.4341222-15.08246403 33.5165862-33.51658621 33.51658778zM813.64928061 947.71562702c-18.4341222 0-33.5165862-15.08246403-33.51658622-33.51658622v-67.03317398c0-18.4341222 15.08246403-33.5165862 33.51658622-33.51658621s33.5165862 15.08246403 33.51658621 33.51658621v67.03317398c0 18.4341222-15.08246403 33.5165862-33.51658621 33.51658622z" fill="#000000" p-id="1506"></path><path d="M411.4502398 210.35071939c-18.4341222 0-33.5165862-15.08246403-33.5165862-33.51658621v-67.03317398c0-18.4341222 15.08246403-33.5165862 33.5165862-33.51658622s33.5165862 15.08246403 33.51658622 33.51658622v67.03317398c0 18.4341222-15.08246403 33.5165862-33.51658622 33.51658621zM411.4502398 746.6161066c-18.4341222 0-33.5165862-15.08246403-33.5165862-33.51658622v-134.0663464c0-18.4341222 15.08246403-33.5165862 33.5165862-33.51658778s33.5165862 15.08246403 33.51658622 33.51658778v134.0663464c0 18.4341222-15.08246403 33.5165862-33.51658622 33.51658622z m0-268.1326928c-18.4341222 0-33.5165862-15.08246403-33.5165862-33.51658778v-134.0663464c0-18.4341222 15.08246403-33.5165862 33.5165862-33.51658622s33.5165862 15.08246403 33.51658622 33.51658622v134.0663464c0 18.4341222-15.08246403 33.5165862-33.51658622 33.51658778zM411.4502398 947.71562702c-18.4341222 0-33.5165862-15.08246403-33.5165862-33.51658622v-67.03317398c0-18.4341222 15.08246403-33.5165862 33.5165862-33.51658621s33.5165862 15.08246403 33.51658622 33.51658621v67.03317398c0 18.4341222-15.08246403 33.5165862-33.51658622 33.51658622z" fill="#000000" p-id="1507"></path></svg>