<?xml version="1.0" standalone="no"?><!DOCTYPE svg PUBLIC "-//W3C//DTD SVG 1.1//EN" "http://www.w3.org/Graphics/SVG/1.1/DTD/svg11.dtd"><svg t="1690771092710" class="icon" viewBox="0 0 1024 1024" version="1.1" xmlns="http://www.w3.org/2000/svg" p-id="6823" width="18" height="18" xmlns:xlink="http://www.w3.org/1999/xlink"><path d="M512 768c-183.466667 0-328.533333-85.333333-426.666667-256 98.133333-170.666667 243.2-256 426.666667-256s328.533333 85.333333 426.666667 256c-98.133333 170.666667-243.2 256-426.666667 256z m8.533333-426.666667c-128 0-256 55.466667-328.533333 170.666667 72.533333 115.2 200.533333 170.666667 328.533333 170.666667s238.933333-55.466667 311.466667-170.666667c-72.533333-115.2-183.466667-170.666667-311.466667-170.666667z m-8.533333 298.666667c-72.533333 0-128-55.466667-128-128s55.466667-128 128-128 128 55.466667 128 128-55.466667 128-128 128z m0-85.333333c25.6 0 42.666667-17.066667 42.666667-42.666667s-17.066667-42.666667-42.666667-42.666667-42.666667 17.066667-42.666667 42.666667 17.066667 42.666667 42.666667 42.666667z" fill="#444444" p-id="6824"></path></svg>