<?xml version="1.0" standalone="no"?><!DOCTYPE svg PUBLIC "-//W3C//DTD SVG 1.1//EN" "http://www.w3.org/Graphics/SVG/1.1/DTD/svg11.dtd"><svg t="1694591975612" class="icon" viewBox="0 0 1024 1024" version="1.1" xmlns="http://www.w3.org/2000/svg" p-id="4831" width="20" height="20" xmlns:xlink="http://www.w3.org/1999/xlink"><path d="M928 257.7H768v-97.4c0-35.3-28.7-64-64-64H320c-35.3 0-64 28.7-64 64v97.4H96c-17.7 0-32 14.3-32 32v606c0 17.7 14.3 32 32 32h832c17.7 0 32-14.3 32-32v-606c0-17.7-14.3-32-32-32z m-608-97.4h384v97H320v-97z m576 703.4H128v-271h281v60c0 17.7 14.3 32 32 32h142c17.7 0 32-14.3 32-32v-60h281v271z m-423-243v-120h78v120h-78z m423-92H615v-60c0-17.7-14.3-32-32-32H441c-17.7 0-32 14.3-32 32v60H128v-207h768v207z" fill="#222222" p-id="4832"></path></svg>