<?xml version="1.0" encoding="utf-8"?>
<!-- Generator: Adobe Illustrator 19.0.0, SVG Export Plug-In . SVG Version: 6.00 Build 0)  -->
<svg version="1.1" id="Layer_1" xmlns="http://www.w3.org/2000/svg" xmlns:xlink="http://www.w3.org/1999/xlink" x="0px" y="0px"
	width="226px" height="38px" viewBox="-224 379 226 38" style="enable-background:new -224 379 226 38;" xml:space="preserve">
<style type="text/css">
	.st0{fill:#455A64;}
	.st1{fill:#2673B4;}
	.st2{fill:#0C578A;}
	.st3{fill:#91CBF5;}
	.st4{fill:#3FA8E2;}
	.st5{fill:url(#SVGID_1_);}
	.st6{fill:url(#SVGID_2_);}
	.st7{fill:#0D588B;}
	.st8{fill:#FFFFFF;}
	.st9{fill:#217DB4;}
	.st10{fill:#CFDFEF;}
	.st11{fill:#FEFEFD;}
</style>
<path id="computer-icon" class="st0" d="M-224,379v23.2h30.1V379H-224z M-197,399.2h-23.9V382h23.9V399.2L-197,399.2z M-204.7,404.1
	l3,3h-14.7l3-3H-204.7z"/>
<path id="tablet-icon" class="st0" d="M-174.2,399.2v-18.5c0-1-0.8-1.7-1.7-1.7h-13.3c-1,0-1.7,0.8-1.7,1.7v18.5
	c0,1,0.8,1.7,1.7,1.7h13.4C-175,400.9-174.2,400.1-174.2,399.2z M-189,398.4v-17.1h12.6v17.1H-189z M-183.1,399.7
	c0-0.2,0.2-0.4,0.4-0.4s0.4,0.2,0.4,0.4c0,0.2-0.2,0.4-0.4,0.4S-183.1,399.9-183.1,399.7z"/>
<path id="tablet-icon_1_" class="st0" d="M-149.7,379h-18.5c-1,0-1.7,0.8-1.7,1.7v13.4c0,1,0.8,1.7,1.7,1.7h18.5
	c1,0,1.7-0.8,1.7-1.7v-13.4C-148,379.7-148.8,379-149.7,379z M-150.4,393.7h-17.2v-12.6h17.1v12.6H-150.4z M-149.2,387.8
	c-0.2,0-0.4-0.2-0.4-0.4c0-0.2,0.2-0.4,0.4-0.4s0.4,0.2,0.4,0.4C-148.8,387.6-149,387.8-149.2,387.8z"/>
<path id="smartphone-4-icon" class="st0" d="M-135.7,379h-7.7c-0.9,0-1.6,0.8-1.6,1.6v16.9c0,0.9,0.8,1.6,1.6,1.6h7.7
	c0.9,0,1.6-0.8,1.6-1.6v-16.9C-134,379.8-134.8,379-135.7,379z M-140.4,380.4h1.8c0.1,0,0.3,0.1,0.3,0.3c0,0.1-0.1,0.3-0.3,0.3h-1.8
	c-0.1,0-0.3-0.1-0.3-0.3C-140.7,380.6-140.5,380.4-140.4,380.4z M-139.5,398.2c-0.4,0-0.8-0.4-0.8-0.8s0.4-0.8,0.8-0.8
	c0.4,0,0.8,0.4,0.8,0.8S-139.1,398.2-139.5,398.2z M-135.3,395.8h-8.4v-13.4h8.4V395.8z"/>
<path id="smartphone-4-icon_1_" class="st0" d="M-128.8,380.7v7.7c0,0.9,0.8,1.6,1.6,1.6h16.9c0.9,0,1.6-0.8,1.6-1.6v-7.7
	c0.1-0.8-0.5-1.6-1.4-1.6h-16.9C-128,379.1-128.8,379.9-128.8,380.7z M-127.2,385.5v-1.8c0-0.1,0.1-0.3,0.3-0.3s0.1,0.1,0.1,0.3v1.8
	c0,0.1-0.1,0.1-0.3,0.1S-127.2,385.6-127.2,385.5z M-109.6,384.6c0,0.4-0.4,0.8-0.8,0.8c-0.4,0-0.8-0.4-0.8-0.8s0.4-0.8,0.8-0.8
	C-109.9,383.8-109.6,384-109.6,384.6z M-111.9,380.3v8.4h-13.5v-8.4H-111.9z"/>
<rect x="-63.1" y="381" class="st0" width="3" height="3"/>

<rect x="-65.1" y="387" class="st0" width="1" height="1"/>
<rect x="-65.1" y="388" class="st0" width="1" height="1"/>
<rect x="-65.1" y="389" class="st0" width="1" height="1"/>
<rect x="-65.1" y="390" class="st0" width="1" height="1"/>
<rect x="-63.1" y="387" class="st0" width="1" height="1"/>
<rect x="-63.1" y="388" class="st0" width="1" height="1"/>
<rect x="-63.1" y="389" class="st0" width="1" height="1"/>
<rect x="-63.1" y="390" class="st0" width="1" height="1"/>
<rect x="-63.1" y="391" class="st0" width="1" height="1"/>
<rect x="-62.1" y="391" class="st0" width="1" height="1"/>
<path class="st0" d="M-65.1,379v7h7v-7H-65.1z M-59.1,385h-5v-5h5V385z"/>
<rect x="-63.1" y="395" class="st0" width="3" height="3"/>
<path class="st0" d="M-65.1,393v7h7v-7H-65.1z M-59.1,399h-5v-5h5V399z"/>
<rect x="-49.1" y="381" class="st0" width="3" height="3"/>
<path class="st0" d="M-51.1,379v7h7v-7H-51.1z M-45.1,385h-5v-5h5V385z"/>
<rect x="-62.1" y="389" class="st0" width="1" height="1"/>
<rect x="-62.1" y="387" class="st0" width="1" height="1"/>
<rect x="-61.1" y="387" class="st0" width="1" height="1"/>
<rect x="-60.1" y="387" class="st0" width="1" height="1"/>
<rect x="-59.1" y="387" class="st0" width="1" height="1"/>
<rect x="-58.1" y="388" class="st0" width="1" height="1"/>
<rect x="-60.1" y="388" class="st0" width="1" height="1"/>
<rect x="-60.1" y="389" class="st0" width="1" height="1"/>
<rect x="-59.1" y="389" class="st0" width="1" height="1"/>
<rect x="-60.1" y="390" class="st0" width="1" height="1"/>
<rect x="-61.1" y="390" class="st0" width="1" height="1"/>
<rect x="-60.1" y="391" class="st0" width="1" height="1"/>
<rect x="-59.1" y="391" class="st0" width="1" height="1"/>
<rect x="-57.1" y="389" class="st0" width="1" height="1"/>
<rect x="-57.1" y="390" class="st0" width="1" height="1"/>
<rect x="-56.1" y="388" class="st0" width="1" height="1"/>
<rect x="-56.1" y="387" class="st0" width="1" height="1"/>
<rect x="-55.1" y="387" class="st0" width="1" height="1"/>
<rect x="-55.1" y="386" class="st0" width="1" height="1"/>
<rect x="-55.1" y="385" class="st0" width="1" height="1"/>
<rect x="-55.1" y="384" class="st0" width="1" height="1"/>
<rect x="-55.1" y="383" class="st0" width="1" height="1"/>
<rect x="-55.1" y="382" class="st0" width="1" height="1"/>
<rect x="-55.1" y="381" class="st0" width="1" height="1"/>
<rect x="-54.1" y="379" class="st0" width="1" height="1"/>
<rect x="-55.1" y="380" class="st0" width="1" height="1"/>
<rect x="-56.1" y="381" class="st0" width="1" height="1"/>
<rect x="-57.1" y="381" class="st0" width="1" height="1"/>
<rect x="-56.1" y="382" class="st0" width="1" height="1"/>
<rect x="-57.1" y="382" class="st0" width="1" height="1"/>
<rect x="-56.1" y="383" class="st0" width="1" height="1"/>
<rect x="-57.1" y="383" class="st0" width="1" height="1"/>
<rect x="-57.1" y="384" class="st0" width="1" height="1"/>
<rect x="-57.1" y="385" class="st0" width="1" height="1"/>
<rect x="-57.1" y="386" class="st0" width="1" height="1"/>
<rect x="-56.1" y="386" class="st0" width="1" height="1"/>
<rect x="-54.1" y="383" class="st0" width="1" height="1"/>
<rect x="-53.1" y="383" class="st0" width="1" height="1"/>
<rect x="-52.1" y="383" class="st0" width="1" height="1"/>
<rect x="-53.1" y="382" class="st0" width="1" height="1"/>
<rect x="-53.1" y="381" class="st0" width="1" height="1"/>
<rect x="-53.1" y="380" class="st0" width="1" height="1"/>
<rect x="-52.1" y="381" class="st0" width="1" height="1"/>
<rect x="-52.1" y="380" class="st0" width="1" height="1"/>
<rect x="-52.1" y="379" class="st0" width="1" height="1"/>
<rect x="-52.1" y="385" class="st0" width="1" height="1"/>
<rect x="-52.1" y="386" class="st0" width="1" height="1"/>
<rect x="-51.1" y="387" class="st0" width="1" height="1"/>
<rect x="-50.1" y="387" class="st0" width="1" height="1"/>
<rect x="-49.1" y="387" class="st0" width="1" height="1"/>
<rect x="-48.1" y="387" class="st0" width="1" height="1"/>
<rect x="-47.1" y="387" class="st0" width="1" height="1"/>
<rect x="-48.1" y="388" class="st0" width="1" height="1"/>
<rect x="-47.1" y="388" class="st0" width="1" height="1"/>
<rect x="-45.1" y="388" class="st0" width="1" height="1"/>
<rect x="-46.1" y="389" class="st0" width="1" height="1"/>
<rect x="-47.1" y="389" class="st0" width="1" height="1"/>
<rect x="-49.1" y="389" class="st0" width="1" height="1"/>
<rect x="-49.1" y="390" class="st0" width="1" height="1"/>
<rect x="-48.1" y="390" class="st0" width="1" height="1"/>
<rect x="-47.1" y="390" class="st0" width="1" height="1"/>
<rect x="-46.1" y="390" class="st0" width="1" height="1"/>
<rect x="-45.1" y="390" class="st0" width="1" height="1"/>
<rect x="-48.1" y="391" class="st0" width="1" height="1"/>
<rect x="-51.1" y="388" class="st0" width="1" height="1"/>
<rect x="-52.1" y="388" class="st0" width="1" height="1"/>
<rect x="-54.1" y="388" class="st0" width="1" height="1"/>
<rect x="-53.1" y="389" class="st0" width="1" height="1"/>
<rect x="-53.1" y="390" class="st0" width="1" height="1"/>
<rect x="-55.1" y="389" class="st0" width="1" height="1"/>
<rect x="-54.1" y="390" class="st0" width="1" height="1"/>
<rect x="-55.1" y="390" class="st0" width="1" height="1"/>
<rect x="-51.1" y="389" class="st0" width="1" height="1"/>
<rect x="-51.1" y="390" class="st0" width="1" height="1"/>
<rect x="-52.1" y="391" class="st0" width="1" height="1"/>
<rect x="-54.1" y="391" class="st0" width="1" height="1"/>
<rect x="-54.1" y="392" class="st0" width="1" height="1"/>
<rect x="-55.1" y="392" class="st0" width="1" height="1"/>
<rect x="-56.1" y="392" class="st0" width="1" height="1"/>
<rect x="-57.1" y="392" class="st0" width="1" height="1"/>
<rect x="-55.1" y="393" class="st0" width="1" height="1"/>
<rect x="-51.1" y="393" class="st0" width="1" height="1"/>
<rect x="-52.1" y="393" class="st0" width="1" height="1"/>
<rect x="-53.1" y="393" class="st0" width="1" height="1"/>
<rect x="-53.1" y="394" class="st0" width="1" height="1"/>
<rect x="-52.1" y="394" class="st0" width="1" height="1"/>
<rect x="-49.1" y="392" class="st0" width="1" height="1"/>
<rect x="-49.1" y="393" class="st0" width="1" height="1"/>
<rect x="-49.1" y="394" class="st0" width="1" height="1"/>
<rect x="-45.1" y="392" class="st0" width="1" height="1"/>
<rect x="-47.1" y="392" class="st0" width="1" height="1"/>
<rect x="-47.1" y="393" class="st0" width="1" height="1"/>
<rect x="-47.1" y="394" class="st0" width="1" height="1"/>
<rect x="-45.1" y="396" class="st0" width="1" height="1"/>
<rect x="-55.1" y="395" class="st0" width="1" height="1"/>
<rect x="-54.1" y="395" class="st0" width="1" height="1"/>
<rect x="-53.1" y="395" class="st0" width="1" height="1"/>
<rect x="-56.1" y="394" class="st0" width="1" height="1"/>
<rect x="-57.1" y="394" class="st0" width="1" height="1"/>
<rect x="-57.1" y="395" class="st0" width="1" height="1"/>
<rect x="-57.1" y="396" class="st0" width="1" height="1"/>
<rect x="-57.1" y="397" class="st0" width="1" height="1"/>
<rect x="-56.1" y="397" class="st0" width="1" height="1"/>
<rect x="-56.1" y="398" class="st0" width="1" height="1"/>
<rect x="-55.1" y="399" class="st0" width="1" height="1"/>
<rect x="-56.1" y="399" class="st0" width="1" height="1"/>
<rect x="-57.1" y="399" class="st0" width="1" height="1"/>
<rect x="-53.1" y="396" class="st0" width="1" height="1"/>
<rect x="-54.1" y="396" class="st0" width="1" height="1"/>
<rect x="-55.1" y="396" class="st0" width="1" height="1"/>
<rect x="-53.1" y="397" class="st0" width="1" height="1"/>
<rect x="-54.1" y="397" class="st0" width="1" height="1"/>
<rect x="-53.1" y="398" class="st0" width="1" height="1"/>
<rect x="-54.1" y="398" class="st0" width="1" height="1"/>
<rect x="-53.1" y="399" class="st0" width="1" height="1"/>
<rect x="-52.1" y="395" class="st0" width="1" height="1"/>
<rect x="-51.1" y="395" class="st0" width="1" height="1"/>
<rect x="-50.1" y="395" class="st0" width="1" height="1"/>
<rect x="-49.1" y="395" class="st0" width="1" height="1"/>
<rect x="-48.1" y="395" class="st0" width="1" height="1"/>
<rect x="-52.1" y="397" class="st0" width="1" height="1"/>
<rect x="-51.1" y="397" class="st0" width="1" height="1"/>
<rect x="-50.1" y="397" class="st0" width="1" height="1"/>
<rect x="-50.1" y="396" class="st0" width="1" height="1"/>
<rect x="-49.1" y="396" class="st0" width="1" height="1"/>
<rect x="-48.1" y="396" class="st0" width="1" height="1"/>
<rect x="-50.1" y="398" class="st0" width="1" height="1"/>
<rect x="-50.1" y="399" class="st0" width="1" height="1"/>
<rect x="-48.1" y="397" class="st0" width="1" height="1"/>
<rect x="-49.1" y="398" class="st0" width="1" height="1"/>
<rect x="-49.1" y="399" class="st0" width="1" height="1"/>
<rect x="-47.1" y="398" class="st0" width="1" height="1"/>
<rect x="-48.1" y="398" class="st0" width="1" height="1"/>
<rect x="-48.1" y="399" class="st0" width="1" height="1"/>
<rect x="-46.1" y="399" class="st0" width="1" height="1"/>
</svg>
